<mxfile host="Electron" agent="Mozilla/5.0 (Windows NT 10.0; Win64; x64) AppleWebKit/537.36 (KHTML, like Gecko) draw.io/26.2.15 Chrome/134.0.6998.205 Electron/35.2.1 Safari/537.36" version="26.2.15">
  <diagram name="Page-1" id="QicQEd0m7so9ujMfxc36">
    <mxGraphModel dx="1103" dy="716" grid="1" gridSize="10" guides="1" tooltips="1" connect="1" arrows="1" fold="1" page="1" pageScale="1" pageWidth="1100" pageHeight="850" math="0" shadow="0">
      <root>
        <mxCell id="0" />
        <mxCell id="1" parent="0" />
        <mxCell id="DjO3IAr1bFS0KgdKVuV4-1" value="" style="group" parent="1" vertex="1" connectable="0">
          <mxGeometry x="115" width="120" height="80" as="geometry" />
        </mxCell>
        <mxCell id="DjO3IAr1bFS0KgdKVuV4-2" value="" style="ellipse;whiteSpace=wrap;html=1;fillColor=#60a917;fontColor=#ffffff;strokeColor=#2D7600;" parent="DjO3IAr1bFS0KgdKVuV4-1" vertex="1">
          <mxGeometry width="120" height="80" as="geometry" />
        </mxCell>
        <mxCell id="DjO3IAr1bFS0KgdKVuV4-3" value="&lt;font style=&quot;font-size: 28px;&quot;&gt;START&lt;/font&gt;" style="text;html=1;align=center;verticalAlign=middle;whiteSpace=wrap;rounded=0;" parent="DjO3IAr1bFS0KgdKVuV4-1" vertex="1">
          <mxGeometry x="30" y="25" width="60" height="30" as="geometry" />
        </mxCell>
        <mxCell id="DjO3IAr1bFS0KgdKVuV4-4" value="" style="group" parent="1" vertex="1" connectable="0">
          <mxGeometry x="115" y="639.9999999999999" width="120" height="80" as="geometry" />
        </mxCell>
        <mxCell id="DjO3IAr1bFS0KgdKVuV4-5" value="" style="ellipse;whiteSpace=wrap;html=1;fillColor=#a20025;fontColor=#ffffff;strokeColor=#6F0000;" parent="DjO3IAr1bFS0KgdKVuV4-4" vertex="1">
          <mxGeometry width="120" height="80" as="geometry" />
        </mxCell>
        <mxCell id="DjO3IAr1bFS0KgdKVuV4-6" value="&lt;font style=&quot;font-size: 28px;&quot;&gt;STOP&lt;/font&gt;" style="text;html=1;align=center;verticalAlign=middle;whiteSpace=wrap;rounded=0;" parent="DjO3IAr1bFS0KgdKVuV4-4" vertex="1">
          <mxGeometry x="30" y="25" width="60" height="30" as="geometry" />
        </mxCell>
        <mxCell id="DjO3IAr1bFS0KgdKVuV4-7" value="&lt;font style=&quot;font-size: 36px;&quot;&gt;PlayClock_Timer_Handler&lt;/font&gt;" style="text;html=1;align=center;verticalAlign=middle;whiteSpace=wrap;rounded=0;" parent="1" vertex="1">
          <mxGeometry x="835" y="25" width="60" height="30" as="geometry" />
        </mxCell>
        <mxCell id="DjO3IAr1bFS0KgdKVuV4-8" value="" style="group" parent="1" vertex="1" connectable="0">
          <mxGeometry y="243" width="820" height="647" as="geometry" />
        </mxCell>
        <mxCell id="DjO3IAr1bFS0KgdKVuV4-9" value="" style="rhombus;whiteSpace=wrap;html=1;" parent="DjO3IAr1bFS0KgdKVuV4-8" vertex="1">
          <mxGeometry width="350" height="350" as="geometry" />
        </mxCell>
        <mxCell id="DjO3IAr1bFS0KgdKVuV4-10" value="&lt;span style=&quot;font-size: 24px;&quot;&gt;Is there a game actively running? (Are all of the &quot;game over&quot;, &quot;round over&quot; and &quot;paused&quot; bits cleared?)&lt;/span&gt;" style="text;html=1;align=center;verticalAlign=middle;whiteSpace=wrap;rounded=0;" parent="DjO3IAr1bFS0KgdKVuV4-8" vertex="1">
          <mxGeometry x="52.5" y="122.50000000000001" width="245.00000000000003" height="105" as="geometry" />
        </mxCell>
        <mxCell id="DjO3IAr1bFS0KgdKVuV4-14" value="&lt;font style=&quot;font-size: 36px;&quot;&gt;NO&lt;/font&gt;" style="text;html=1;align=center;verticalAlign=middle;whiteSpace=wrap;rounded=0;" parent="DjO3IAr1bFS0KgdKVuV4-8" vertex="1">
          <mxGeometry x="90" y="335" width="60" height="30" as="geometry" />
        </mxCell>
        <mxCell id="DjO3IAr1bFS0KgdKVuV4-15" value="&lt;font style=&quot;font-size: 36px;&quot;&gt;YES&lt;/font&gt;" style="text;html=1;align=center;verticalAlign=middle;whiteSpace=wrap;rounded=0;" parent="DjO3IAr1bFS0KgdKVuV4-8" vertex="1">
          <mxGeometry x="320" y="107.5" width="60" height="30" as="geometry" />
        </mxCell>
        <mxCell id="DjO3IAr1bFS0KgdKVuV4-16" value="" style="group" parent="DjO3IAr1bFS0KgdKVuV4-8" vertex="1" connectable="0">
          <mxGeometry x="360" y="137.5" width="250" height="50" as="geometry" />
        </mxCell>
        <mxCell id="DjO3IAr1bFS0KgdKVuV4-18" value="&lt;font style=&quot;font-size: 24px;&quot;&gt;Increment Timer by 1&lt;/font&gt;" style="text;html=1;align=center;verticalAlign=middle;whiteSpace=wrap;rounded=0;fillColor=#ffe6cc;strokeColor=#d79b00;" parent="DjO3IAr1bFS0KgdKVuV4-16" vertex="1">
          <mxGeometry x="30.002222222222223" y="12.5" width="250" height="50" as="geometry" />
        </mxCell>
        <mxCell id="DjO3IAr1bFS0KgdKVuV4-76" style="edgeStyle=orthogonalEdgeStyle;rounded=0;orthogonalLoop=1;jettySize=auto;html=1;exitX=1;exitY=0.5;exitDx=0;exitDy=0;entryX=0;entryY=0.5;entryDx=0;entryDy=0;" parent="DjO3IAr1bFS0KgdKVuV4-8" source="DjO3IAr1bFS0KgdKVuV4-9" target="DjO3IAr1bFS0KgdKVuV4-18" edge="1">
          <mxGeometry relative="1" as="geometry" />
        </mxCell>
        <mxCell id="DjO3IAr1bFS0KgdKVuV4-19" value="" style="group" parent="DjO3IAr1bFS0KgdKVuV4-8" vertex="1" connectable="0">
          <mxGeometry x="402.5" y="37" width="225" height="75" as="geometry" />
        </mxCell>
        <mxCell id="DjO3IAr1bFS0KgdKVuV4-20" value="" style="rounded=1;whiteSpace=wrap;html=1;" parent="DjO3IAr1bFS0KgdKVuV4-19" vertex="1">
          <mxGeometry width="225" height="75" as="geometry" />
        </mxCell>
        <mxCell id="DjO3IAr1bFS0KgdKVuV4-21" value="&lt;font style=&quot;font-size: 24px;&quot;&gt;Retrieve PlayClock timer info&lt;/font&gt;" style="text;html=1;align=center;verticalAlign=middle;whiteSpace=wrap;rounded=0;fillColor=#ffe6cc;strokeColor=#d79b00;" parent="DjO3IAr1bFS0KgdKVuV4-19" vertex="1">
          <mxGeometry width="225" height="75" as="geometry" />
        </mxCell>
        <mxCell id="DjO3IAr1bFS0KgdKVuV4-77" style="edgeStyle=orthogonalEdgeStyle;rounded=0;orthogonalLoop=1;jettySize=auto;html=1;exitX=0.5;exitY=0;exitDx=0;exitDy=0;entryX=0.5;entryY=1;entryDx=0;entryDy=0;" parent="DjO3IAr1bFS0KgdKVuV4-8" source="DjO3IAr1bFS0KgdKVuV4-18" target="DjO3IAr1bFS0KgdKVuV4-21" edge="1">
          <mxGeometry relative="1" as="geometry" />
        </mxCell>
        <mxCell id="DjO3IAr1bFS0KgdKVuV4-85" value="&lt;font style=&quot;font-size: 36px;&quot;&gt;NO&lt;/font&gt;" style="text;html=1;align=center;verticalAlign=middle;whiteSpace=wrap;rounded=0;" parent="DjO3IAr1bFS0KgdKVuV4-8" vertex="1">
          <mxGeometry x="480" y="387" width="60" height="30" as="geometry" />
        </mxCell>
        <mxCell id="0doxISU6lt0aXgtnQZmY-10" value="" style="group" vertex="1" connectable="0" parent="DjO3IAr1bFS0KgdKVuV4-8">
          <mxGeometry x="280" y="337" width="200" height="200" as="geometry" />
        </mxCell>
        <mxCell id="0doxISU6lt0aXgtnQZmY-11" value="" style="rhombus;whiteSpace=wrap;html=1;" vertex="1" parent="0doxISU6lt0aXgtnQZmY-10">
          <mxGeometry width="200" height="200" as="geometry" />
        </mxCell>
        <mxCell id="0doxISU6lt0aXgtnQZmY-12" value="&lt;span style=&quot;font-size: 24px;&quot;&gt;Is it time to respawn the powerup?&lt;/span&gt;" style="text;html=1;align=center;verticalAlign=middle;whiteSpace=wrap;rounded=0;" vertex="1" parent="0doxISU6lt0aXgtnQZmY-10">
          <mxGeometry x="30" y="70" width="140" height="60" as="geometry" />
        </mxCell>
        <mxCell id="0doxISU6lt0aXgtnQZmY-20" value="&lt;font style=&quot;font-size: 36px;&quot;&gt;NO&lt;/font&gt;" style="text;html=1;align=center;verticalAlign=middle;whiteSpace=wrap;rounded=0;" vertex="1" parent="DjO3IAr1bFS0KgdKVuV4-8">
          <mxGeometry x="237.5" y="387" width="60" height="30" as="geometry" />
        </mxCell>
        <mxCell id="DjO3IAr1bFS0KgdKVuV4-43" value="" style="group" parent="DjO3IAr1bFS0KgdKVuV4-8" vertex="1" connectable="0">
          <mxGeometry x="520" y="287" width="300" height="300" as="geometry" />
        </mxCell>
        <mxCell id="DjO3IAr1bFS0KgdKVuV4-44" value="" style="rhombus;whiteSpace=wrap;html=1;" parent="DjO3IAr1bFS0KgdKVuV4-43" vertex="1">
          <mxGeometry width="300" height="300" as="geometry" />
        </mxCell>
        <mxCell id="DjO3IAr1bFS0KgdKVuV4-45" value="&lt;span style=&quot;font-size: 24px;&quot;&gt;Is one of the players powered up? Are either p1 or p2&#39;s &quot;powered up&quot; bits set?&lt;/span&gt;" style="text;html=1;align=center;verticalAlign=middle;whiteSpace=wrap;rounded=0;" parent="DjO3IAr1bFS0KgdKVuV4-43" vertex="1">
          <mxGeometry x="45" y="105" width="210" height="90" as="geometry" />
        </mxCell>
        <mxCell id="0doxISU6lt0aXgtnQZmY-23" style="edgeStyle=orthogonalEdgeStyle;rounded=0;orthogonalLoop=1;jettySize=auto;html=1;exitX=0;exitY=0.5;exitDx=0;exitDy=0;entryX=1;entryY=0.5;entryDx=0;entryDy=0;" edge="1" parent="DjO3IAr1bFS0KgdKVuV4-8" source="DjO3IAr1bFS0KgdKVuV4-44" target="0doxISU6lt0aXgtnQZmY-11">
          <mxGeometry relative="1" as="geometry" />
        </mxCell>
        <mxCell id="DjO3IAr1bFS0KgdKVuV4-107" value="&lt;font style=&quot;font-size: 36px;&quot;&gt;YES&lt;/font&gt;" style="text;html=1;align=center;verticalAlign=middle;whiteSpace=wrap;rounded=0;" parent="DjO3IAr1bFS0KgdKVuV4-8" vertex="1">
          <mxGeometry x="690" y="587" width="60" height="30" as="geometry" />
        </mxCell>
        <mxCell id="0doxISU6lt0aXgtnQZmY-24" value="&lt;font style=&quot;font-size: 36px;&quot;&gt;YES&lt;/font&gt;" style="text;html=1;align=center;verticalAlign=middle;whiteSpace=wrap;rounded=0;" vertex="1" parent="DjO3IAr1bFS0KgdKVuV4-8">
          <mxGeometry x="402.5" y="537" width="60" height="30" as="geometry" />
        </mxCell>
        <mxCell id="DjO3IAr1bFS0KgdKVuV4-11" value="" style="group" parent="1" vertex="1" connectable="0">
          <mxGeometry x="62.5" y="120" width="225" height="75" as="geometry" />
        </mxCell>
        <mxCell id="DjO3IAr1bFS0KgdKVuV4-12" value="" style="rounded=1;whiteSpace=wrap;html=1;" parent="DjO3IAr1bFS0KgdKVuV4-11" vertex="1">
          <mxGeometry width="225" height="75" as="geometry" />
        </mxCell>
        <mxCell id="DjO3IAr1bFS0KgdKVuV4-13" value="&lt;font style=&quot;font-size: 24px;&quot;&gt;Clear the interrupt&lt;/font&gt;" style="text;html=1;align=center;verticalAlign=middle;whiteSpace=wrap;rounded=0;fillColor=#dae8fc;strokeColor=#6c8ebf;" parent="DjO3IAr1bFS0KgdKVuV4-11" vertex="1">
          <mxGeometry width="225" height="75" as="geometry" />
        </mxCell>
        <mxCell id="DjO3IAr1bFS0KgdKVuV4-25" value="" style="group" parent="1" vertex="1" connectable="0">
          <mxGeometry x="402.5" y="70" width="225" height="75" as="geometry" />
        </mxCell>
        <mxCell id="DjO3IAr1bFS0KgdKVuV4-26" value="" style="rounded=1;whiteSpace=wrap;html=1;" parent="DjO3IAr1bFS0KgdKVuV4-25" vertex="1">
          <mxGeometry width="225" height="75" as="geometry" />
        </mxCell>
        <mxCell id="DjO3IAr1bFS0KgdKVuV4-27" value="&lt;font style=&quot;font-size: 24px;&quot;&gt;Update PlayClock timer info&lt;/font&gt;" style="text;html=1;align=center;verticalAlign=middle;whiteSpace=wrap;rounded=0;fillColor=#ffe6cc;strokeColor=#d79b00;" parent="DjO3IAr1bFS0KgdKVuV4-25" vertex="1">
          <mxGeometry width="225" height="75" as="geometry" />
        </mxCell>
        <mxCell id="DjO3IAr1bFS0KgdKVuV4-31" value="" style="group" parent="1" vertex="1" connectable="0">
          <mxGeometry x="770" y="120" width="225" height="75" as="geometry" />
        </mxCell>
        <mxCell id="DjO3IAr1bFS0KgdKVuV4-32" value="" style="rounded=1;whiteSpace=wrap;html=1;" parent="DjO3IAr1bFS0KgdKVuV4-31" vertex="1">
          <mxGeometry width="225" height="75" as="geometry" />
        </mxCell>
        <mxCell id="DjO3IAr1bFS0KgdKVuV4-33" value="&lt;span style=&quot;font-size: 24px;&quot;&gt;Convert value to ANSI string&lt;/span&gt;" style="text;html=1;align=center;verticalAlign=middle;whiteSpace=wrap;rounded=0;fillColor=#e1d5e7;strokeColor=#9673a6;" parent="DjO3IAr1bFS0KgdKVuV4-31" vertex="1">
          <mxGeometry width="225" height="75" as="geometry" />
        </mxCell>
        <mxCell id="DjO3IAr1bFS0KgdKVuV4-34" value="" style="group" parent="1" vertex="1" connectable="0">
          <mxGeometry x="745" y="240" width="275" height="75" as="geometry" />
        </mxCell>
        <mxCell id="DjO3IAr1bFS0KgdKVuV4-35" value="" style="rounded=1;whiteSpace=wrap;html=1;" parent="DjO3IAr1bFS0KgdKVuV4-34" vertex="1">
          <mxGeometry width="275" height="75" as="geometry" />
        </mxCell>
        <mxCell id="DjO3IAr1bFS0KgdKVuV4-36" value="&lt;font style=&quot;font-size: 24px;&quot;&gt;Update Timer ANSI string with new string&lt;/font&gt;" style="text;html=1;align=center;verticalAlign=middle;whiteSpace=wrap;rounded=0;fillColor=#e1d5e7;strokeColor=#9673a6;" parent="DjO3IAr1bFS0KgdKVuV4-34" vertex="1">
          <mxGeometry width="275" height="75" as="geometry" />
        </mxCell>
        <mxCell id="DjO3IAr1bFS0KgdKVuV4-37" value="" style="group" parent="1" vertex="1" connectable="0">
          <mxGeometry x="770" y="360" width="225" height="75" as="geometry" />
        </mxCell>
        <mxCell id="DjO3IAr1bFS0KgdKVuV4-38" value="" style="rounded=1;whiteSpace=wrap;html=1;" parent="DjO3IAr1bFS0KgdKVuV4-37" vertex="1">
          <mxGeometry width="225" height="75" as="geometry" />
        </mxCell>
        <mxCell id="DjO3IAr1bFS0KgdKVuV4-39" value="&lt;font style=&quot;font-size: 24px;&quot;&gt;Print new Timer ANSI string&lt;/font&gt;" style="text;html=1;align=center;verticalAlign=middle;whiteSpace=wrap;rounded=0;fillColor=#e1d5e7;strokeColor=#9673a6;" parent="DjO3IAr1bFS0KgdKVuV4-37" vertex="1">
          <mxGeometry width="225" height="75" as="geometry" />
        </mxCell>
        <mxCell id="DjO3IAr1bFS0KgdKVuV4-40" value="" style="group" parent="1" vertex="1" connectable="0">
          <mxGeometry x="770" y="530" width="225" height="75" as="geometry" />
        </mxCell>
        <mxCell id="DjO3IAr1bFS0KgdKVuV4-41" value="" style="rounded=1;whiteSpace=wrap;html=1;" parent="DjO3IAr1bFS0KgdKVuV4-40" vertex="1">
          <mxGeometry width="225" height="75" as="geometry" />
        </mxCell>
        <mxCell id="DjO3IAr1bFS0KgdKVuV4-42" value="&lt;font style=&quot;font-size: 24px;&quot;&gt;Update PowerUp LEDs:&lt;/font&gt;" style="text;html=1;align=center;verticalAlign=middle;whiteSpace=wrap;rounded=0;fillColor=#fff2cc;strokeColor=#d6b656;" parent="DjO3IAr1bFS0KgdKVuV4-40" vertex="1">
          <mxGeometry width="225" height="75" as="geometry" />
        </mxCell>
        <mxCell id="DjO3IAr1bFS0KgdKVuV4-46" value="" style="group" parent="1" vertex="1" connectable="0">
          <mxGeometry x="712.5" y="990" width="225" height="75" as="geometry" />
        </mxCell>
        <mxCell id="DjO3IAr1bFS0KgdKVuV4-47" value="" style="rounded=1;whiteSpace=wrap;html=1;" parent="DjO3IAr1bFS0KgdKVuV4-46" vertex="1">
          <mxGeometry width="225" height="75" as="geometry" />
        </mxCell>
        <mxCell id="DjO3IAr1bFS0KgdKVuV4-48" value="&lt;font style=&quot;font-size: 24px;&quot;&gt;Retrieve powerup expiration time&lt;/font&gt;" style="text;html=1;align=center;verticalAlign=middle;whiteSpace=wrap;rounded=0;fillColor=#fff2cc;strokeColor=#d6b656;" parent="DjO3IAr1bFS0KgdKVuV4-46" vertex="1">
          <mxGeometry width="225" height="75" as="geometry" />
        </mxCell>
        <mxCell id="DjO3IAr1bFS0KgdKVuV4-55" value="" style="group" parent="1" vertex="1" connectable="0">
          <mxGeometry x="700" y="1115" width="250" height="100" as="geometry" />
        </mxCell>
        <mxCell id="DjO3IAr1bFS0KgdKVuV4-56" value="" style="rounded=1;whiteSpace=wrap;html=1;" parent="DjO3IAr1bFS0KgdKVuV4-55" vertex="1">
          <mxGeometry width="250" height="100" as="geometry" />
        </mxCell>
        <mxCell id="DjO3IAr1bFS0KgdKVuV4-57" value="&lt;font style=&quot;font-size: 24px;&quot;&gt;How much time is left? Subtract current time from expiration time&lt;/font&gt;" style="text;html=1;align=center;verticalAlign=middle;whiteSpace=wrap;rounded=0;fillColor=#fff2cc;strokeColor=#d6b656;" parent="DjO3IAr1bFS0KgdKVuV4-55" vertex="1">
          <mxGeometry width="250" height="100" as="geometry" />
        </mxCell>
        <mxCell id="DjO3IAr1bFS0KgdKVuV4-58" value="" style="group" parent="1" vertex="1" connectable="0">
          <mxGeometry x="250" y="960" width="300" height="50" as="geometry" />
        </mxCell>
        <mxCell id="DjO3IAr1bFS0KgdKVuV4-59" value="" style="rounded=1;whiteSpace=wrap;html=1;" parent="DjO3IAr1bFS0KgdKVuV4-58" vertex="1">
          <mxGeometry width="300" height="50" as="geometry" />
        </mxCell>
        <mxCell id="DjO3IAr1bFS0KgdKVuV4-60" value="&lt;font style=&quot;font-size: 24px;&quot;&gt;9-12 seconds: Light 4 LEDs&lt;/font&gt;" style="text;html=1;align=center;verticalAlign=middle;whiteSpace=wrap;rounded=0;fillColor=#fff2cc;strokeColor=#d6b656;" parent="DjO3IAr1bFS0KgdKVuV4-58" vertex="1">
          <mxGeometry width="300" height="50" as="geometry" />
        </mxCell>
        <mxCell id="DjO3IAr1bFS0KgdKVuV4-61" value="" style="group" parent="1" vertex="1" connectable="0">
          <mxGeometry x="250" y="1042.5" width="300" height="50" as="geometry" />
        </mxCell>
        <mxCell id="DjO3IAr1bFS0KgdKVuV4-63" value="&lt;span style=&quot;font-size: 24px;&quot;&gt;6-9 seconds: Light 3 LEDs&lt;/span&gt;" style="text;html=1;align=center;verticalAlign=middle;whiteSpace=wrap;rounded=0;fillColor=#fff2cc;strokeColor=#d6b656;" parent="DjO3IAr1bFS0KgdKVuV4-61" vertex="1">
          <mxGeometry y="7.5" width="300" height="50" as="geometry" />
        </mxCell>
        <mxCell id="DjO3IAr1bFS0KgdKVuV4-95" style="edgeStyle=orthogonalEdgeStyle;rounded=0;orthogonalLoop=1;jettySize=auto;html=1;exitX=0;exitY=0.5;exitDx=0;exitDy=0;entryX=0.5;entryY=1;entryDx=0;entryDy=0;" parent="1" source="DjO3IAr1bFS0KgdKVuV4-64" target="DjO3IAr1bFS0KgdKVuV4-5" edge="1">
          <mxGeometry relative="1" as="geometry" />
        </mxCell>
        <mxCell id="DjO3IAr1bFS0KgdKVuV4-64" value="&lt;span style=&quot;font-size: 24px;&quot;&gt;3-6 seconds: Light 2 LEDs&lt;/span&gt;" style="text;html=1;align=center;verticalAlign=middle;whiteSpace=wrap;rounded=0;fillColor=#fff2cc;strokeColor=#d6b656;" parent="1" vertex="1">
          <mxGeometry x="250" y="1140" width="300" height="50" as="geometry" />
        </mxCell>
        <mxCell id="DjO3IAr1bFS0KgdKVuV4-96" style="edgeStyle=orthogonalEdgeStyle;rounded=0;orthogonalLoop=1;jettySize=auto;html=1;exitX=0;exitY=0.5;exitDx=0;exitDy=0;entryX=0.5;entryY=1;entryDx=0;entryDy=0;" parent="1" source="DjO3IAr1bFS0KgdKVuV4-65" target="DjO3IAr1bFS0KgdKVuV4-5" edge="1">
          <mxGeometry relative="1" as="geometry" />
        </mxCell>
        <mxCell id="DjO3IAr1bFS0KgdKVuV4-65" value="&lt;span style=&quot;font-size: 24px;&quot;&gt;1-3 seconds: Light 1 LED&lt;/span&gt;" style="text;html=1;align=center;verticalAlign=middle;whiteSpace=wrap;rounded=0;fillColor=#fff2cc;strokeColor=#d6b656;" parent="1" vertex="1">
          <mxGeometry x="262.5" y="1230" width="275" height="50" as="geometry" />
        </mxCell>
        <mxCell id="DjO3IAr1bFS0KgdKVuV4-66" value="" style="group" parent="1" vertex="1" connectable="0">
          <mxGeometry x="275" y="1310" width="250" height="50" as="geometry" />
        </mxCell>
        <mxCell id="DjO3IAr1bFS0KgdKVuV4-67" value="" style="rounded=1;whiteSpace=wrap;html=1;" parent="DjO3IAr1bFS0KgdKVuV4-66" vertex="1">
          <mxGeometry width="250" height="50" as="geometry" />
        </mxCell>
        <mxCell id="DjO3IAr1bFS0KgdKVuV4-68" value="&lt;font style=&quot;font-size: 24px;&quot;&gt;0 seconds: 0 LEDs&lt;/font&gt;" style="text;html=1;align=center;verticalAlign=middle;whiteSpace=wrap;rounded=0;fillColor=#fff2cc;strokeColor=#d6b656;" parent="DjO3IAr1bFS0KgdKVuV4-66" vertex="1">
          <mxGeometry width="250" height="50" as="geometry" />
        </mxCell>
        <mxCell id="DjO3IAr1bFS0KgdKVuV4-69" value="" style="group" parent="1" vertex="1" connectable="0">
          <mxGeometry x="287.5" y="1395" width="225" height="100" as="geometry" />
        </mxCell>
        <mxCell id="DjO3IAr1bFS0KgdKVuV4-70" value="" style="rounded=1;whiteSpace=wrap;html=1;" parent="DjO3IAr1bFS0KgdKVuV4-69" vertex="1">
          <mxGeometry width="225" height="100" as="geometry" />
        </mxCell>
        <mxCell id="DjO3IAr1bFS0KgdKVuV4-71" value="&lt;font style=&quot;font-size: 24px;&quot;&gt;Clear &quot;powered up&quot; bits from both player&#39;s info&lt;/font&gt;" style="text;html=1;align=center;verticalAlign=middle;whiteSpace=wrap;rounded=0;fillColor=#fff2cc;strokeColor=#d6b656;" parent="DjO3IAr1bFS0KgdKVuV4-69" vertex="1">
          <mxGeometry width="225" height="100" as="geometry" />
        </mxCell>
        <mxCell id="DjO3IAr1bFS0KgdKVuV4-72" style="edgeStyle=orthogonalEdgeStyle;rounded=0;orthogonalLoop=1;jettySize=auto;html=1;exitX=0.5;exitY=1;exitDx=0;exitDy=0;entryX=0.5;entryY=0;entryDx=0;entryDy=0;" parent="1" source="DjO3IAr1bFS0KgdKVuV4-13" target="DjO3IAr1bFS0KgdKVuV4-9" edge="1">
          <mxGeometry relative="1" as="geometry" />
        </mxCell>
        <mxCell id="DjO3IAr1bFS0KgdKVuV4-73" style="edgeStyle=orthogonalEdgeStyle;rounded=0;orthogonalLoop=1;jettySize=auto;html=1;exitX=0.5;exitY=1;exitDx=0;exitDy=0;entryX=0.5;entryY=0;entryDx=0;entryDy=0;" parent="1" source="DjO3IAr1bFS0KgdKVuV4-2" target="DjO3IAr1bFS0KgdKVuV4-13" edge="1">
          <mxGeometry relative="1" as="geometry" />
        </mxCell>
        <mxCell id="DjO3IAr1bFS0KgdKVuV4-75" style="edgeStyle=orthogonalEdgeStyle;rounded=0;orthogonalLoop=1;jettySize=auto;html=1;exitX=0.5;exitY=1;exitDx=0;exitDy=0;entryX=0.5;entryY=0;entryDx=0;entryDy=0;" parent="1" source="DjO3IAr1bFS0KgdKVuV4-9" target="DjO3IAr1bFS0KgdKVuV4-5" edge="1">
          <mxGeometry relative="1" as="geometry" />
        </mxCell>
        <mxCell id="DjO3IAr1bFS0KgdKVuV4-79" style="edgeStyle=orthogonalEdgeStyle;rounded=0;orthogonalLoop=1;jettySize=auto;html=1;exitX=0.5;exitY=0;exitDx=0;exitDy=0;entryX=0.5;entryY=1;entryDx=0;entryDy=0;" parent="1" source="DjO3IAr1bFS0KgdKVuV4-24" target="DjO3IAr1bFS0KgdKVuV4-27" edge="1">
          <mxGeometry relative="1" as="geometry" />
        </mxCell>
        <mxCell id="DjO3IAr1bFS0KgdKVuV4-24" value="&lt;font style=&quot;font-size: 24px;&quot;&gt;Increment value by 1&lt;/font&gt;" style="text;html=1;align=center;verticalAlign=middle;whiteSpace=wrap;rounded=0;fillColor=#ffe6cc;strokeColor=#d79b00;" parent="1" vertex="1">
          <mxGeometry x="390" y="190" width="250" height="50" as="geometry" />
        </mxCell>
        <mxCell id="DjO3IAr1bFS0KgdKVuV4-78" style="edgeStyle=orthogonalEdgeStyle;rounded=0;orthogonalLoop=1;jettySize=auto;html=1;exitX=0.5;exitY=0;exitDx=0;exitDy=0;entryX=0.5;entryY=1;entryDx=0;entryDy=0;" parent="1" source="DjO3IAr1bFS0KgdKVuV4-21" target="DjO3IAr1bFS0KgdKVuV4-24" edge="1">
          <mxGeometry relative="1" as="geometry" />
        </mxCell>
        <mxCell id="DjO3IAr1bFS0KgdKVuV4-80" style="edgeStyle=orthogonalEdgeStyle;rounded=0;orthogonalLoop=1;jettySize=auto;html=1;exitX=1;exitY=0.5;exitDx=0;exitDy=0;entryX=0;entryY=0.5;entryDx=0;entryDy=0;" parent="1" source="DjO3IAr1bFS0KgdKVuV4-27" target="DjO3IAr1bFS0KgdKVuV4-33" edge="1">
          <mxGeometry relative="1" as="geometry" />
        </mxCell>
        <mxCell id="DjO3IAr1bFS0KgdKVuV4-81" style="edgeStyle=orthogonalEdgeStyle;rounded=0;orthogonalLoop=1;jettySize=auto;html=1;exitX=0.5;exitY=1;exitDx=0;exitDy=0;entryX=0.5;entryY=0;entryDx=0;entryDy=0;" parent="1" source="DjO3IAr1bFS0KgdKVuV4-33" target="DjO3IAr1bFS0KgdKVuV4-36" edge="1">
          <mxGeometry relative="1" as="geometry" />
        </mxCell>
        <mxCell id="DjO3IAr1bFS0KgdKVuV4-82" style="edgeStyle=orthogonalEdgeStyle;rounded=0;orthogonalLoop=1;jettySize=auto;html=1;exitX=0.5;exitY=1;exitDx=0;exitDy=0;entryX=0.5;entryY=0;entryDx=0;entryDy=0;" parent="1" source="DjO3IAr1bFS0KgdKVuV4-36" target="DjO3IAr1bFS0KgdKVuV4-39" edge="1">
          <mxGeometry relative="1" as="geometry" />
        </mxCell>
        <mxCell id="DjO3IAr1bFS0KgdKVuV4-83" style="edgeStyle=orthogonalEdgeStyle;rounded=0;orthogonalLoop=1;jettySize=auto;html=1;exitX=0.5;exitY=1;exitDx=0;exitDy=0;entryX=0.5;entryY=0;entryDx=0;entryDy=0;" parent="1" source="DjO3IAr1bFS0KgdKVuV4-39" target="DjO3IAr1bFS0KgdKVuV4-42" edge="1">
          <mxGeometry relative="1" as="geometry" />
        </mxCell>
        <mxCell id="DjO3IAr1bFS0KgdKVuV4-86" style="edgeStyle=orthogonalEdgeStyle;rounded=0;orthogonalLoop=1;jettySize=auto;html=1;exitX=0.5;exitY=1;exitDx=0;exitDy=0;entryX=1;entryY=0.5;entryDx=0;entryDy=0;" parent="1" source="DjO3IAr1bFS0KgdKVuV4-42" target="DjO3IAr1bFS0KgdKVuV4-44" edge="1">
          <mxGeometry relative="1" as="geometry" />
        </mxCell>
        <mxCell id="DjO3IAr1bFS0KgdKVuV4-92" style="edgeStyle=orthogonalEdgeStyle;rounded=0;orthogonalLoop=1;jettySize=auto;html=1;exitX=0;exitY=0.5;exitDx=0;exitDy=0;entryX=0.5;entryY=1;entryDx=0;entryDy=0;" parent="1" source="DjO3IAr1bFS0KgdKVuV4-60" target="DjO3IAr1bFS0KgdKVuV4-5" edge="1">
          <mxGeometry relative="1" as="geometry" />
        </mxCell>
        <mxCell id="DjO3IAr1bFS0KgdKVuV4-94" style="edgeStyle=orthogonalEdgeStyle;rounded=0;orthogonalLoop=1;jettySize=auto;html=1;exitX=0;exitY=0.5;exitDx=0;exitDy=0;entryX=0.5;entryY=1;entryDx=0;entryDy=0;" parent="1" source="DjO3IAr1bFS0KgdKVuV4-63" target="DjO3IAr1bFS0KgdKVuV4-5" edge="1">
          <mxGeometry relative="1" as="geometry" />
        </mxCell>
        <mxCell id="DjO3IAr1bFS0KgdKVuV4-97" style="edgeStyle=orthogonalEdgeStyle;rounded=0;orthogonalLoop=1;jettySize=auto;html=1;exitX=0.5;exitY=1;exitDx=0;exitDy=0;entryX=0.5;entryY=0;entryDx=0;entryDy=0;" parent="1" source="DjO3IAr1bFS0KgdKVuV4-68" target="DjO3IAr1bFS0KgdKVuV4-71" edge="1">
          <mxGeometry relative="1" as="geometry" />
        </mxCell>
        <mxCell id="DjO3IAr1bFS0KgdKVuV4-98" style="edgeStyle=orthogonalEdgeStyle;rounded=0;orthogonalLoop=1;jettySize=auto;html=1;exitX=0;exitY=0.5;exitDx=0;exitDy=0;entryX=0.5;entryY=1;entryDx=0;entryDy=0;" parent="1" source="DjO3IAr1bFS0KgdKVuV4-71" target="DjO3IAr1bFS0KgdKVuV4-5" edge="1">
          <mxGeometry relative="1" as="geometry" />
        </mxCell>
        <mxCell id="DjO3IAr1bFS0KgdKVuV4-99" style="edgeStyle=orthogonalEdgeStyle;rounded=0;orthogonalLoop=1;jettySize=auto;html=1;exitX=0;exitY=0.5;exitDx=0;exitDy=0;entryX=1;entryY=0.5;entryDx=0;entryDy=0;" parent="1" source="DjO3IAr1bFS0KgdKVuV4-57" target="DjO3IAr1bFS0KgdKVuV4-60" edge="1">
          <mxGeometry relative="1" as="geometry" />
        </mxCell>
        <mxCell id="DjO3IAr1bFS0KgdKVuV4-100" style="edgeStyle=orthogonalEdgeStyle;rounded=0;orthogonalLoop=1;jettySize=auto;html=1;exitX=0;exitY=0.5;exitDx=0;exitDy=0;entryX=1;entryY=0.5;entryDx=0;entryDy=0;" parent="1" source="DjO3IAr1bFS0KgdKVuV4-57" target="DjO3IAr1bFS0KgdKVuV4-63" edge="1">
          <mxGeometry relative="1" as="geometry" />
        </mxCell>
        <mxCell id="DjO3IAr1bFS0KgdKVuV4-105" style="edgeStyle=orthogonalEdgeStyle;rounded=0;orthogonalLoop=1;jettySize=auto;html=1;exitX=0.5;exitY=1;exitDx=0;exitDy=0;entryX=0.5;entryY=0;entryDx=0;entryDy=0;" parent="1" source="DjO3IAr1bFS0KgdKVuV4-44" target="DjO3IAr1bFS0KgdKVuV4-48" edge="1">
          <mxGeometry relative="1" as="geometry" />
        </mxCell>
        <mxCell id="DjO3IAr1bFS0KgdKVuV4-106" style="edgeStyle=orthogonalEdgeStyle;rounded=0;orthogonalLoop=1;jettySize=auto;html=1;exitX=0.5;exitY=1;exitDx=0;exitDy=0;entryX=0.5;entryY=0;entryDx=0;entryDy=0;" parent="1" source="DjO3IAr1bFS0KgdKVuV4-48" target="DjO3IAr1bFS0KgdKVuV4-57" edge="1">
          <mxGeometry relative="1" as="geometry" />
        </mxCell>
        <mxCell id="0doxISU6lt0aXgtnQZmY-16" value="" style="group" vertex="1" connectable="0" parent="1">
          <mxGeometry x="267.5" y="820" width="225" height="75" as="geometry" />
        </mxCell>
        <mxCell id="0doxISU6lt0aXgtnQZmY-17" value="" style="rounded=1;whiteSpace=wrap;html=1;" vertex="1" parent="0doxISU6lt0aXgtnQZmY-16">
          <mxGeometry width="225" height="75" as="geometry" />
        </mxCell>
        <mxCell id="0doxISU6lt0aXgtnQZmY-18" value="&lt;font style=&quot;font-size: 24px;&quot;&gt;Draw powerup on game board&lt;/font&gt;" style="text;html=1;align=center;verticalAlign=middle;whiteSpace=wrap;rounded=0;fillColor=#fff2cc;strokeColor=#d6b656;" vertex="1" parent="0doxISU6lt0aXgtnQZmY-16">
          <mxGeometry width="225" height="75" as="geometry" />
        </mxCell>
        <mxCell id="0doxISU6lt0aXgtnQZmY-19" style="edgeStyle=orthogonalEdgeStyle;rounded=0;orthogonalLoop=1;jettySize=auto;html=1;exitX=0;exitY=0.5;exitDx=0;exitDy=0;entryX=1;entryY=0.5;entryDx=0;entryDy=0;" edge="1" parent="1" source="0doxISU6lt0aXgtnQZmY-11" target="DjO3IAr1bFS0KgdKVuV4-5">
          <mxGeometry relative="1" as="geometry" />
        </mxCell>
        <mxCell id="0doxISU6lt0aXgtnQZmY-21" style="edgeStyle=orthogonalEdgeStyle;rounded=0;orthogonalLoop=1;jettySize=auto;html=1;exitX=0.5;exitY=1;exitDx=0;exitDy=0;entryX=0.5;entryY=0;entryDx=0;entryDy=0;" edge="1" parent="1" source="0doxISU6lt0aXgtnQZmY-11" target="0doxISU6lt0aXgtnQZmY-18">
          <mxGeometry relative="1" as="geometry" />
        </mxCell>
        <mxCell id="0doxISU6lt0aXgtnQZmY-22" style="edgeStyle=orthogonalEdgeStyle;rounded=0;orthogonalLoop=1;jettySize=auto;html=1;exitX=0;exitY=0.5;exitDx=0;exitDy=0;entryX=0.5;entryY=1;entryDx=0;entryDy=0;" edge="1" parent="1" source="0doxISU6lt0aXgtnQZmY-18" target="DjO3IAr1bFS0KgdKVuV4-5">
          <mxGeometry relative="1" as="geometry" />
        </mxCell>
        <mxCell id="0doxISU6lt0aXgtnQZmY-25" style="edgeStyle=orthogonalEdgeStyle;rounded=0;orthogonalLoop=1;jettySize=auto;html=1;exitX=0;exitY=0.5;exitDx=0;exitDy=0;entryX=1;entryY=0.5;entryDx=0;entryDy=0;" edge="1" parent="1" source="DjO3IAr1bFS0KgdKVuV4-57" target="DjO3IAr1bFS0KgdKVuV4-64">
          <mxGeometry relative="1" as="geometry" />
        </mxCell>
        <mxCell id="0doxISU6lt0aXgtnQZmY-26" style="edgeStyle=orthogonalEdgeStyle;rounded=0;orthogonalLoop=1;jettySize=auto;html=1;exitX=0;exitY=0.5;exitDx=0;exitDy=0;entryX=1;entryY=0.5;entryDx=0;entryDy=0;" edge="1" parent="1">
          <mxGeometry relative="1" as="geometry">
            <mxPoint x="695" y="1164.9999999999998" as="sourcePoint" />
            <mxPoint x="532.5" y="1255" as="targetPoint" />
            <Array as="points">
              <mxPoint x="625" y="1165" />
              <mxPoint x="625" y="1255" />
            </Array>
          </mxGeometry>
        </mxCell>
        <mxCell id="0doxISU6lt0aXgtnQZmY-27" style="edgeStyle=orthogonalEdgeStyle;rounded=0;orthogonalLoop=1;jettySize=auto;html=1;exitX=0;exitY=0.5;exitDx=0;exitDy=0;entryX=1;entryY=0.5;entryDx=0;entryDy=0;" edge="1" parent="1">
          <mxGeometry relative="1" as="geometry">
            <mxPoint x="705" y="1164.9999999999998" as="sourcePoint" />
            <mxPoint x="530" y="1335" as="targetPoint" />
            <Array as="points">
              <mxPoint x="625" y="1165" />
              <mxPoint x="625" y="1335" />
            </Array>
          </mxGeometry>
        </mxCell>
      </root>
    </mxGraphModel>
  </diagram>
</mxfile>
